<svg width="10" height="15" viewBox="0 0 10 15" fill="none" xmlns="http://www.w3.org/2000/svg">
<path fill-rule="evenodd" clip-rule="evenodd" d="M5.59319 0.813033L5.07484 0L4.5744 0.824177C4.24907 1.35996 3.91427 1.90336 3.5769 2.45091L3.57679 2.45109C2.80855 3.69796 2.02703 4.96638 1.31391 6.21554C-0.240927 8.93912 -0.324794 11.141 0.585925 12.695C1.48467 14.2285 3.23658 14.927 4.91124 14.9006C6.58852 14.8741 8.34047 14.12 9.26174 12.5557C10.1957 10.9698 10.1721 8.73446 8.67526 5.96898C7.74616 4.25247 6.67562 2.51085 5.59319 0.813033ZM4.5859 3.10104C4.75635 2.82441 4.92676 2.54783 5.09645 2.27143C5.99183 3.69541 6.85661 5.12996 7.61994 6.5402C8.99781 9.0858 8.87398 10.8495 8.22773 11.9468C7.56874 13.0657 6.2604 13.6791 4.89232 13.7007C3.52161 13.7223 2.24307 13.1493 1.62123 12.0882C1.01137 11.0476 0.916784 9.33161 2.35605 6.81048C3.05892 5.57926 3.82278 4.33955 4.58588 3.10107L4.5859 3.10104ZM3.29349 9.79613C3.38405 9.47738 3.19905 9.14556 2.8803 9.05501C2.56154 8.96445 2.22972 9.14944 2.13917 9.4682C1.96529 10.0802 1.9542 10.8537 2.24653 11.5068C2.39634 11.8415 2.63091 12.1537 2.97175 12.3806C3.31446 12.6088 3.73088 12.7281 4.20621 12.7281C4.53758 12.7281 4.80621 12.4594 4.80621 12.1281C4.80621 11.7967 4.53758 11.5281 4.20621 11.5281C3.93659 11.5281 3.75818 11.4626 3.6367 11.3817C3.51334 11.2996 3.41436 11.1786 3.34181 11.0165C3.1894 10.676 3.17831 10.2016 3.29349 9.79613Z" fill="white"/>
</svg>
